<?xml version="1.0" encoding="utf-8"?>
<!-- Generator: Adobe Illustrator 14.0.0, SVG Export Plug-In . SVG Version: 6.00 Build 43363)  -->
<!DOCTYPE svg PUBLIC "-//W3C//DTD SVG 1.1//EN" "http://www.w3.org/Graphics/SVG/1.1/DTD/svg11.dtd">
<svg version="1.1" id="Layer_1" xmlns="http://www.w3.org/2000/svg" xmlns:xlink="http://www.w3.org/1999/xlink" x="0px" y="0px"
	 width="612px" height="792px" viewBox="0 0 612 792" enable-background="new 0 0 612 792" xml:space="preserve">
<g>
	<path fill="#DC8C4A" d="M400.924,491.924V300H209v191.924H400.924L400.924,491.924z M381.48,319.442v153.039H228.442V319.442
		H381.48L381.48,319.442z"/>
	<path fill="#DC8C4A" d="M366.938,448.19V343.733H243.036V448.19H366.938L366.938,448.19z M319.355,387.465v-7.297h7.297v7.297
		H319.355L319.355,387.465z M359.639,351.03v16.993H252.732V351.03H359.639L359.639,351.03z M354.791,387.465h-24.34v-7.297h24.34
		V387.465L354.791,387.465z M330.451,394.762h24.34v7.297h-24.34V394.762L330.451,394.762z M319.355,394.762h7.297v7.297h-7.297
		V394.762L319.355,394.762z M326.652,409.307v7.297h-7.297v-7.297H326.652L326.652,409.307z M330.451,416.604v-7.297h24.34v7.297
		H330.451L330.451,416.604z M311.758,410.057c0,7.196-2.648,13.345-7.996,18.492c-5.348,5.048-11.795,7.597-19.242,7.597
		c-7.497,0-13.895-2.549-19.142-7.597c-5.348-5.147-7.997-11.296-7.997-18.492c0-7.247,2.649-13.396,7.997-18.443
		c5.198-5.098,11.495-7.647,18.942-7.697v25.39h27.438C311.758,409.557,311.758,409.807,311.758,410.057L311.758,410.057z"/>
</g>
</svg>
