<?xml version="1.0" encoding="UTF-8" standalone="no"?>
<!-- Generator: Adobe Illustrator 14.0.0, SVG Export Plug-In . SVG Version: 6.00 Build 43363)  -->

<svg
   xmlns:dc="http://purl.org/dc/elements/1.1/"
   xmlns:cc="http://creativecommons.org/ns#"
   xmlns:rdf="http://www.w3.org/1999/02/22-rdf-syntax-ns#"
   xmlns:svg="http://www.w3.org/2000/svg"
   xmlns="http://www.w3.org/2000/svg"
   xmlns:xlink="http://www.w3.org/1999/xlink"
   xmlns:sodipodi="http://sodipodi.sourceforge.net/DTD/sodipodi-0.dtd"
   xmlns:inkscape="http://www.inkscape.org/namespaces/inkscape"
   version="1.1"
   id="Layer_1"
   x="0px"
   y="0px"
   width="283.85919"
   height="285.55789"
   viewBox="0 0 283.85919 285.55789"
   enable-background="new 0 0 612 792"
   xml:space="preserve"
   inkscape:version="0.48+devel r12609"
   sodipodi:docname="powerpoint-viewer.svg"><metadata
   id="metadata13"><rdf:RDF><cc:Work
       rdf:about=""><dc:format>image/svg+xml</dc:format><dc:type
         rdf:resource="http://purl.org/dc/dcmitype/StillImage" /><dc:title /></cc:Work></rdf:RDF></metadata><defs
   id="defs11"><linearGradient
     inkscape:collect="always"
     xlink:href="#linearGradient4145"
     id="linearGradient4216"
     gradientUnits="userSpaceOnUse"
     gradientTransform="translate(-15.844294,-42.822415)"
     x1="427.79593"
     y1="418.59042"
     x2="308.88391"
     y2="339.36896" /><linearGradient
     inkscape:collect="always"
     id="linearGradient4145"><stop
       style="stop-color:#000000;stop-opacity:1;"
       offset="0"
       id="stop4147" /><stop
       style="stop-color:#000000;stop-opacity:0;"
       offset="1"
       id="stop4149" /></linearGradient><filter
     inkscape:collect="always"
     id="filter4141"><feGaussianBlur
       inkscape:collect="always"
       stdDeviation="1.0889941"
       id="feGaussianBlur4143" /></filter><radialGradient
     inkscape:collect="always"
     xlink:href="#linearGradient1439"
     id="radialGradient4218"
     gradientUnits="userSpaceOnUse"
     gradientTransform="matrix(1.1767241,-0.06570592,0.06229194,1.0081481,242.27164,193.29801)"
     cx="61.56411"
     cy="105.93911"
     fx="69.98687"
     fy="90.41909"
     r="27.959114" /><linearGradient
     id="linearGradient1439"><stop
       id="stop1440"
       offset="0"
       style="stop-color:#ffffff;stop-opacity:0.5704698;" /><stop
       id="stop1441"
       offset="1"
       style="stop-color:#96b0c6;stop-opacity:0.89932889;" /></linearGradient><linearGradient
     inkscape:collect="always"
     xlink:href="#linearGradient1045"
     id="linearGradient4220"
     gradientUnits="userSpaceOnUse"
     gradientTransform="matrix(1.1481635,-0.03408387,0.03066403,0.9334827,252.4323,191.06145)"
     x1="57.667629"
     y1="84.017433"
     x2="60.490723"
     y2="111.23763" /><linearGradient
     id="linearGradient1045"><stop
       id="stop1046"
       offset="0.00000000"
       style="stop-color:#ffffff;stop-opacity:0.74901962;" /><stop
       id="stop1047"
       offset="1.0000000"
       style="stop-color:#ffffff;stop-opacity:0.00000000;" /></linearGradient><linearGradient
     inkscape:collect="always"
     xlink:href="#linearGradient1045"
     id="linearGradient4222"
     gradientUnits="userSpaceOnUse"
     gradientTransform="matrix(1.1879329,-0.03526444,0.02518942,0.7668232,265.95849,191.03645)"
     x1="42.497837"
     y1="103.57257"
     x2="54.32185"
     y2="167.94406" /><linearGradient
     id="linearGradient3312"><stop
       id="stop3314"
       offset="0.00000000"
       style="stop-color:#ffffff;stop-opacity:0.74901962;" /><stop
       id="stop3316"
       offset="1.0000000"
       style="stop-color:#ffffff;stop-opacity:0.00000000;" /></linearGradient><linearGradient
     inkscape:collect="always"
     xlink:href="#linearGradient1045"
     id="linearGradient4224"
     gradientUnits="userSpaceOnUse"
     gradientTransform="matrix(1.0181639,-0.03179448,0.0306403,0.9812034,248.50031,191.28893)"
     x1="110.05048"
     y1="138.23856"
     x2="103.6906"
     y2="145.33636" /><linearGradient
     id="linearGradient3319"><stop
       id="stop3321"
       offset="0.00000000"
       style="stop-color:#ffffff;stop-opacity:0.74901962;" /><stop
       id="stop3323"
       offset="1.0000000"
       style="stop-color:#ffffff;stop-opacity:0.00000000;" /></linearGradient><linearGradient
     inkscape:collect="always"
     xlink:href="#linearGradient4191"
     id="linearGradient4226"
     gradientUnits="userSpaceOnUse"
     x1="350.71558"
     y1="336.3714"
     x2="358.85184"
     y2="327.80692" /><linearGradient
     inkscape:collect="always"
     id="linearGradient4191"><stop
       style="stop-color:#000000;stop-opacity:1;"
       offset="0"
       id="stop4193" /><stop
       style="stop-color:#000000;stop-opacity:0;"
       offset="1"
       id="stop4195" /></linearGradient></defs><sodipodi:namedview
   pagecolor="#ffffff"
   bordercolor="#666666"
   borderopacity="1"
   objecttolerance="10"
   gridtolerance="10"
   guidetolerance="10"
   inkscape:pageopacity="0"
   inkscape:pageshadow="2"
   inkscape:window-width="1680"
   inkscape:window-height="974"
   id="namedview9"
   showgrid="false"
   fit-margin-top="0"
   fit-margin-left="0"
   fit-margin-right="0"
   fit-margin-bottom="0"
   showborder="false"
   inkscape:zoom="1.6856283"
   inkscape:cx="177.54238"
   inkscape:cy="160.24817"
   inkscape:window-x="0"
   inkscape:window-y="25"
   inkscape:window-maximized="1"
   inkscape:current-layer="Layer_1" />
<g
   id="g3"
   transform="matrix(1.4196576,0,0,1.4196576,-296.70844,-425.89728)">
	<path
   d="m 400.924,491.924 0,-191.924 -191.924,0 0,191.924 191.924,0 0,0 z m -19.444,-172.482 0,153.039 -153.038,0 0,-153.039 153.038,0 0,0 z"
   id="path5"
   inkscape:connector-curvature="0"
   style="fill:#dc8c4a" />
	<path
   d="m 366.938,448.19 0,-104.457 -123.902,0 0,104.457 123.902,0 0,0 z m -47.583,-60.725 0,-7.297 7.297,0 0,7.297 -7.297,0 0,0 z m 40.284,-36.435 0,16.993 -106.907,0 0,-16.993 106.907,0 0,0 z m -4.848,36.435 -24.34,0 0,-7.297 24.34,0 0,7.297 0,0 z m -24.34,7.297 24.34,0 0,7.297 -24.34,0 0,-7.297 0,0 z m -11.096,0 7.297,0 0,7.297 -7.297,0 0,-7.297 0,0 z m 7.297,14.545 0,7.297 -7.297,0 0,-7.297 7.297,0 0,0 z m 3.799,7.297 0,-7.297 24.34,0 0,7.297 -24.34,0 0,0 z m -18.693,-6.547 c 0,7.196 -2.648,13.345 -7.996,18.492 -5.348,5.048 -11.795,7.597 -19.242,7.597 -7.497,0 -13.895,-2.549 -19.142,-7.597 -5.348,-5.147 -7.997,-11.296 -7.997,-18.492 0,-7.247 2.649,-13.396 7.997,-18.443 5.198,-5.098 11.495,-7.647 18.942,-7.697 l 0,25.39 27.438,0 c 0,0.25 0,0.5 0,0.75 l 0,0 z"
   id="path7"
   inkscape:connector-curvature="0"
   style="fill:#dc8c4a" />
</g>
<g
   id="g4206"
   transform="matrix(1.6832324,0,0,1.8217035,-357.42094,-358.593)"><path
     sodipodi:nodetypes="cssscccccsccssssc"
     id="path4039"
     d="m 316.07229,281.98202 c -0.43848,0.0486 -0.86293,0.0963 -1.30329,0.16735 -14.09135,2.2736 -23.67275,15.31462 -21.39425,29.11832 2.2785,13.8037 15.55266,23.18673 29.64399,20.91314 5.32396,-0.85901 9.9974,-3.24509 13.63696,-6.64407 l 29.69403,21.53613 c 3.12107,-0.43375 5.32521,-2.54648 6.63691,-6.36414 l -31.28016,-21.37742 -0.60163,0.70667 c 2.99888,-4.94941 4.31388,-10.8985 3.30565,-17.00664 -2.20729,-13.37234 -14.74564,-22.55444 -28.33821,-21.04934 z m 0.11619,1.0566 c 13.01836,-1.44152 25.05638,7.3638 27.17043,20.17124 2.18223,13.22057 -8.30725,25.74182 -21.80333,27.91939 -13.49606,2.17754 -24.91335,-6.79082 -27.0956,-20.0114 -2.18223,-13.22055 6.99145,-25.73934 20.48752,-27.91689 0.42175,-0.0681 0.82103,-0.11586 1.24098,-0.16234 z"
     style="fill:url(#linearGradient4216);fill-opacity:1;fill-rule:evenodd;stroke-width:0.5;filter:url(#filter4141)"
     inkscape:connector-curvature="0" /><path
     style="fill:#807d74;fill-opacity:1;fill-rule:evenodd;stroke-width:0.5"
     d="m 344.17328,310.53057 29.61718,27.04843 c -1.89242,3.87599 -4.50058,5.8091 -7.81004,5.83855 l -28.02027,-27.09828 6.21313,-5.7887 z"
     id="path852"
     sodipodi:nodetypes="ccccc"
     inkscape:connector-curvature="0" /><path
     sodipodi:nodetypes="ccc"
     id="path4204"
     d="m 344.98664,308.53682 c -25.57774,26.69357 -58.35719,-3.9253 -41.04008,-28.54056 -22.47432,26.70691 17.05217,59.23993 41.04008,28.54056 z"
     style="fill:#273f57;fill-opacity:0.99607843;fill-rule:nonzero;stroke:none"
     inkscape:connector-curvature="0" /><path
     style="fill:url(#radialGradient4218);fill-opacity:1;fill-rule:evenodd;stroke:#314e6c;stroke-width:1.13486826;stroke-miterlimit:4;stroke-opacity:0.99523806;stroke-dasharray:none"
     d="m 349.29738,294.36408 c 0.43574,13.26512 -10.53563,24.36721 -24.48967,24.78145 -13.95405,0.41424 -25.63272,-10.01548 -26.06847,-23.2806 -0.43574,-13.26512 10.53563,-24.3672 24.48968,-24.78143 13.95404,-0.41424 25.6327,10.01546 26.06846,23.28058 z"
     id="path853"
     inkscape:connector-curvature="0" /><path
     style="fill:url(#linearGradient4220);fill-opacity:0.09090905;fill-rule:evenodd;stroke-width:1pt"
     d="m 334.58464,277.67286 c 3.57111,4.2824 -0.18987,12.77638 -8.39505,18.9598 -8.2052,6.18342 -17.76278,7.72625 -21.33391,3.44384 -3.57111,-4.28239 0.18987,-12.77639 8.39506,-18.95979 8.20519,-6.18343 17.76278,-7.72627 21.3339,-3.44385 z"
     id="path863"
     inkscape:connector-curvature="0" /><path
     style="fill:url(#linearGradient4222);fill-opacity:0.55208333;fill-rule:evenodd;stroke-width:1pt"
     d="m 310.11078,312.32383 c 14.49429,4.30904 31.85616,-4.46732 36.42449,-18.21714 4.41474,12.57528 -23.28046,39.53212 -36.42449,18.21714 z"
     id="path885"
     sodipodi:nodetypes="ccc"
     inkscape:connector-curvature="0" /><path
     sodipodi:nodetypes="ccccc"
     id="path1766"
     d="m 339.59269,316.18967 4.6224,-4.38252 27.97152,25.69252 c 1.23309,3.32848 -0.44562,5.68159 -6.10065,4.88028 l -26.49327,-26.19028 z"
     style="fill:url(#linearGradient4224);fill-opacity:0.75;fill-rule:evenodd;stroke:none"
     inkscape:connector-curvature="0" /><path
     sodipodi:nodetypes="ccccc"
     id="path4187"
     d="m 338.93805,316.8243 4.6224,-4.38252 27.97152,25.69252 c 1.23309,3.32848 -0.44562,5.68159 -6.10065,4.88028 L 338.93805,316.8243 Z"
     style="fill:url(#linearGradient4226);fill-opacity:1;fill-rule:evenodd;stroke:none"
     inkscape:connector-curvature="0" /></g></svg>